<svg xmlns="http://www.w3.org/2000/svg" style="display:none">
<symbol id="magnifier-sprout" viewBox="0 0 64 64">
  <title>Magnifier Sprout</title>
  <circle cx="27" cy="27" r="16" fill="#EAF4DF" stroke="#2F6B3F" stroke-width="4" stroke-linecap="round" stroke-linejoin="round"/>
<path d="M39 39L54 54" stroke="#2F6B3F" stroke-width="4" stroke-linecap="round" stroke-linejoin="round"/>
<path d="M27 39V26" stroke="#2F6B3F" stroke-width="4" stroke-linecap="round" stroke-linejoin="round"/>
<path d="M27 27C21 20 14 21 13 30C21 31 25 30 27 27Z" fill="#76A85B" stroke="#2F6B3F" stroke-width="3" stroke-linejoin="round"/>
<path d="M27 27C34 19 42 21 43 31C34 32 30 30 27 27Z" fill="#91C46B" stroke="#2F6B3F" stroke-width="3" stroke-linejoin="round"/>
<path d="M15 15L11 11M18 10L18 5" stroke="#F4C84A" stroke-width="4" stroke-linecap="round"/>
</symbol>
<symbol id="leaf" viewBox="0 0 64 64">
  <title>Leaf</title>
  <path d="M52 12C31 13 14 26 13 50C37 49 51 33 52 12Z" fill="#91C46B" stroke="#2F6B3F" stroke-width="4" stroke-linejoin="round"/>
<path d="M44 20C34 29 26 38 14 50" stroke="#2F6B3F" stroke-width="4" stroke-linecap="round" stroke-linejoin="round"/>
<path d="M30 34C30 26 27 22 23 18" stroke="#2F6B3F" stroke-width="3" stroke-linecap="round"/>
<path d="M36 28C43 29 47 27 50 23" stroke="#2F6B3F" stroke-width="3" stroke-linecap="round"/>
</symbol>
<symbol id="flower" viewBox="0 0 64 64">
  <title>Flower</title>
  <circle cx="32" cy="32" r="5" fill="#F4C84A" stroke="#2F6B3F" stroke-width="3"/>
<path d="M32 12C25 18 25 25 32 28C39 25 39 18 32 12Z" fill="#F8F0A6" stroke="#2F6B3F" stroke-width="3"/>
<path d="M52 32C46 25 39 25 36 32C39 39 46 39 52 32Z" fill="#F8F0A6" stroke="#2F6B3F" stroke-width="3"/>
<path d="M32 52C39 46 39 39 32 36C25 39 25 46 32 52Z" fill="#F8F0A6" stroke="#2F6B3F" stroke-width="3"/>
<path d="M12 32C18 39 25 39 28 32C25 25 18 25 12 32Z" fill="#F8F0A6" stroke="#2F6B3F" stroke-width="3"/>
</symbol>
<symbol id="paw" viewBox="0 0 64 64">
  <title>Paw</title>
  <path d="M22 36C15 41 16 52 27 51H37C48 52 49 41 42 36C38 33 36 28 32 28C28 28 26 33 22 36Z" fill="#EAF4DF" stroke="#2F6B3F" stroke-width="4" stroke-linecap="round" stroke-linejoin="round"/>
<ellipse cx="18" cy="24" rx="5" ry="7" fill="#9E8A66" stroke="#2F6B3F" stroke-width="3"/>
<ellipse cx="30" cy="18" rx="5" ry="7" fill="#9E8A66" stroke="#2F6B3F" stroke-width="3"/>
<ellipse cx="46" cy="24" rx="5" ry="7" fill="#9E8A66" stroke="#2F6B3F" stroke-width="3"/>
<ellipse cx="40" cy="17" rx="5" ry="7" fill="#9E8A66" stroke="#2F6B3F" stroke-width="3"/>
</symbol>
<symbol id="camera" viewBox="0 0 64 64">
  <title>Camera</title>
  <rect x="10" y="18" width="44" height="32" rx="9" fill="#FFF8E8" stroke="#2F6B3F" stroke-width="4" stroke-linecap="round" stroke-linejoin="round"/>
<path d="M22 18L25 12H39L42 18" stroke="#2F6B3F" stroke-width="4" stroke-linecap="round" stroke-linejoin="round"/>
<circle cx="32" cy="34" r="10" fill="#EAF4DF" stroke="#2F6B3F" stroke-width="4" stroke-linecap="round" stroke-linejoin="round"/>
<circle cx="47" cy="26" r="2.5" fill="#2F6B3F"/>
<path d="M29 34L34 29M34 29L36 36" stroke="#91C46B" stroke-width="3" stroke-linecap="round"/>
</symbol>
<symbol id="map" viewBox="0 0 64 64">
  <title>Map</title>
  <path d="M12 16L25 10L39 16L52 10V48L39 54L25 48L12 54V16Z" fill="#EAF4DF" stroke="#2F6B3F" stroke-width="4" stroke-linecap="round" stroke-linejoin="round"/>
<path d="M25 10V48M39 16V54" stroke="#2F6B3F" stroke-width="4" stroke-linecap="round" stroke-linejoin="round"/>
<path d="M32 25C32 25 25 30 25 37C25 41 28 44 32 44C36 44 39 41 39 37C39 30 32 25 32 25Z" fill="#F4C84A" stroke="#2F6B3F" stroke-width="3"/>
<circle cx="32" cy="36" r="3" fill="#2F6B3F"/>
</symbol>
<symbol id="quest-flag" viewBox="0 0 64 64">
  <title>Quest Flag</title>
  <path d="M18 54V12" stroke="#2F6B3F" stroke-width="4" stroke-linecap="round" stroke-linejoin="round"/>
<path d="M18 14H48L42 25L48 36H18" fill="#EAF4DF" stroke="#2F6B3F" stroke-width="4" stroke-linecap="round" stroke-linejoin="round"/>
<path d="M27 24H38" stroke="#8BA17B" stroke-width="4" stroke-linecap="round" stroke-linejoin="round"/>
</symbol>
<symbol id="book" viewBox="0 0 64 64">
  <title>Book</title>
  <path d="M12 14H28C32 14 32 18 32 18V52C32 52 31 48 27 48H12V14Z" fill="#EAF4DF" stroke="#2F6B3F" stroke-width="4" stroke-linecap="round" stroke-linejoin="round"/>
<path d="M52 14H36C32 14 32 18 32 18V52C32 52 33 48 37 48H52V14Z" fill="#FFF8E8" stroke="#2F6B3F" stroke-width="4" stroke-linecap="round" stroke-linejoin="round"/>
<path d="M20 24H26M20 32H25M39 24H45M39 32H44" stroke="#8BA17B" stroke-width="4" stroke-linecap="round" stroke-linejoin="round"/>
</symbol>
<symbol id="shield-heart" viewBox="0 0 64 64">
  <title>Shield Heart</title>
  <path d="M32 8L50 16V29C50 43 42 53 32 58C22 53 14 43 14 29V16L32 8Z" fill="#EAF4DF" stroke="#2F6B3F" stroke-width="4" stroke-linecap="round" stroke-linejoin="round"/>
<path d="M32 40C32 40 22 34 22 27C22 23 25 21 28 21C30 21 31 22 32 24C33 22 34 21 36 21C39 21 42 23 42 27C42 34 32 40 32 40Z" fill="#E88D7D" stroke="#2F6B3F" stroke-width="3" stroke-linejoin="round"/>
</symbol>
<symbol id="family" viewBox="0 0 64 64">
  <title>Family</title>
  <circle cx="24" cy="23" r="7" fill="#EAF4DF" stroke="#2F6B3F" stroke-width="4" stroke-linecap="round" stroke-linejoin="round"/>
<circle cx="42" cy="25" r="6" fill="#EAF4DF" stroke="#2F6B3F" stroke-width="4" stroke-linecap="round" stroke-linejoin="round"/>
<circle cx="33" cy="39" r="5" fill="#F8F0A6" stroke="#2F6B3F" stroke-width="3"/>
<path d="M12 52C14 42 20 37 27 37C32 37 36 39 39 43" stroke="#2F6B3F" stroke-width="4" stroke-linecap="round" stroke-linejoin="round"/>
<path d="M37 39C42 37 50 40 54 50" stroke="#2F6B3F" stroke-width="4" stroke-linecap="round" stroke-linejoin="round"/>
</symbol>
<symbol id="crown" viewBox="0 0 64 64">
  <title>Crown</title>
  <path d="M12 24L23 36L32 18L41 36L52 24V48H12V24Z" fill="#F4C84A" stroke="#2F6B3F" stroke-width="4" stroke-linecap="round" stroke-linejoin="round"/>
<path d="M18 54H46" stroke="#2F6B3F" stroke-width="4" stroke-linecap="round" stroke-linejoin="round"/>
<circle cx="32" cy="18" r="3" fill="#2F6B3F"/>
</symbol>
<symbol id="compass" viewBox="0 0 64 64">
  <title>Compass</title>
  <circle cx="32" cy="32" r="22" fill="#EAF4DF" stroke="#2F6B3F" stroke-width="4" stroke-linecap="round" stroke-linejoin="round"/>
<path d="M40 19L34 36L24 45L30 28L40 19Z" fill="#F4C84A" stroke="#2F6B3F" stroke-width="3" stroke-linejoin="round"/>
<circle cx="32" cy="32" r="3" fill="#2F6B3F"/>
<path d="M32 6V12M32 52V58M6 32H12M52 32H58" stroke="#8BA17B" stroke-width="4" stroke-linecap="round" stroke-linejoin="round"/>
</symbol>
<symbol id="settings" viewBox="0 0 64 64">
  <title>Settings</title>
  <path d="M32 22C26.5 22 22 26.5 22 32C22 37.5 26.5 42 32 42C37.5 42 42 37.5 42 32C42 26.5 37.5 22 32 22Z" fill="#EAF4DF" stroke="#2F6B3F" stroke-width="4" stroke-linecap="round" stroke-linejoin="round"/>
<path d="M32 8V14M32 50V56M12 32H8M56 32H52M17.5 17.5L13 13M51 51L46.5 46.5M46.5 17.5L51 13M13 51L17.5 46.5" stroke="#2F6B3F" stroke-width="4" stroke-linecap="round" stroke-linejoin="round"/>
</symbol>
<symbol id="bell" viewBox="0 0 64 64">
  <title>Bell</title>
  <path d="M20 29C20 21 25 15 32 15C39 15 44 21 44 29V39L50 46H14L20 39V29Z" fill="#FFF8E8" stroke="#2F6B3F" stroke-width="4" stroke-linecap="round" stroke-linejoin="round"/>
<path d="M28 50C29 54 35 54 36 50" stroke="#2F6B3F" stroke-width="4" stroke-linecap="round" stroke-linejoin="round"/>
<circle cx="47" cy="16" r="5" fill="#F47B54"/>
</symbol>
<symbol id="sparkle" viewBox="0 0 64 64">
  <title>Sparkle</title>
  <path d="M32 8L37 25L54 32L37 39L32 56L27 39L10 32L27 25L32 8Z" fill="#F4C84A" stroke="#2F6B3F" stroke-width="4" stroke-linejoin="round"/>
<path d="M49 10L51 17L58 20L51 23L49 30L47 23L40 20L47 17L49 10Z" fill="#F8F0A6" stroke="#2F6B3F" stroke-width="3"/>
</symbol>
<symbol id="album" viewBox="0 0 64 64">
  <title>Album</title>
  <rect x="10" y="12" width="44" height="40" rx="8" fill="#FFF8E8" stroke="#2F6B3F" stroke-width="4" stroke-linecap="round" stroke-linejoin="round"/>
<path d="M16 43L27 31L36 39L42 33L50 43" fill="#EAF4DF" stroke="#2F6B3F" stroke-width="3" stroke-linejoin="round"/>
<circle cx="42" cy="23" r="4" fill="#F4C84A" stroke="#2F6B3F" stroke-width="3"/>
</symbol>
<symbol id="scan-frame" viewBox="0 0 64 64">
  <title>Scan Frame</title>
  <path d="M12 24V14C12 12.9 12.9 12 14 12H24" stroke="#2F6B3F" stroke-width="4" stroke-linecap="round" stroke-linejoin="round"/>
<path d="M40 12H50C51.1 12 52 12.9 52 14V24" stroke="#2F6B3F" stroke-width="4" stroke-linecap="round" stroke-linejoin="round"/>
<path d="M52 40V50C52 51.1 51.1 52 50 52H40" stroke="#2F6B3F" stroke-width="4" stroke-linecap="round" stroke-linejoin="round"/>
<path d="M24 52H14C12.9 52 12 51.1 12 50V40" stroke="#2F6B3F" stroke-width="4" stroke-linecap="round" stroke-linejoin="round"/>
<path d="M22 32H42" stroke="#8BA17B" stroke-width="4" stroke-linecap="round" stroke-linejoin="round"/>
</symbol>
<symbol id="butterfly" viewBox="0 0 64 64">
  <title>Butterfly</title>
  <path d="M31 31C23 18 10 16 9 29C10 40 24 39 31 31Z" fill="#F4C84A" stroke="#2F6B3F" stroke-width="3"/>
<path d="M33 31C41 18 54 16 55 29C54 40 40 39 33 31Z" fill="#F4C84A" stroke="#2F6B3F" stroke-width="3"/>
<path d="M31 35C23 48 11 47 10 37C16 31 25 30 31 35Z" fill="#F8D76E" stroke="#2F6B3F" stroke-width="3"/>
<path d="M33 35C41 48 53 47 54 37C48 31 39 30 33 35Z" fill="#F8D76E" stroke="#2F6B3F" stroke-width="3"/>
<path d="M32 27V45" stroke="#2F6B3F" stroke-width="4" stroke-linecap="round" stroke-linejoin="round"/>
<path d="M28 24C27 19 23 17 20 16M36 24C37 19 41 17 44 16" stroke="#2F6B3F" stroke-width="3" stroke-linecap="round"/>
</symbol>
<symbol id="building-landmark" viewBox="0 0 64 64">
  <title>Building Landmark</title>
  <path d="M32 10L52 22H12L32 10Z" fill="#FFF8E8" stroke="#2F6B3F" stroke-width="4" stroke-linecap="round" stroke-linejoin="round"/>
<path d="M16 50H48" stroke="#2F6B3F" stroke-width="4" stroke-linecap="round" stroke-linejoin="round"/>
<path d="M20 22V48M30 22V48M40 22V48" stroke="#2F6B3F" stroke-width="4" stroke-linecap="round" stroke-linejoin="round"/>
<path d="M12 54H52" stroke="#2F6B3F" stroke-width="4" stroke-linecap="round" stroke-linejoin="round"/>
<circle cx="32" cy="18" r="2" fill="#2F6B3F"/>
</symbol>
</svg>
